<?xml version="1.0" encoding="utf-8"?>
<!-- Generator: Adobe Illustrator 27.5.0, SVG Export Plug-In . SVG Version: 6.00 Build 0)  -->
<svg version="1.1" xmlns="http://www.w3.org/2000/svg" xmlns:xlink="http://www.w3.org/1999/xlink" x="0px" y="0px"
	 viewBox="0 0 500 500" style="enable-background:new 0 0 500 500;" xml:space="preserve">
<g id="Background_Simple">
	<g>
		<path style="fill:#92E3A9;" d="M41.743,222.098c1.257-21.003,8.221-41.658,22.767-60.631
			c18.743-24.446,48.067-37.391,78.021-41.394c43.531-5.818,81.85,4.436,122.49-19.308c12.535-7.324,23.904-16.538,36.59-23.598
			c37.421-20.823,79.506-5.405,105.31,26.441c53.83,66.435,51.732,167.958,26.323,245.347
			c-11.403,34.73-37.259,62.839-70.235,78.577c-74.582,35.595-174.279-1.421-235.822-47.777
			C81.294,345.187,38.145,282.214,41.743,222.098z"/>
		<path style="opacity:0.7;fill:#FFFFFF;" d="M41.743,222.098c1.257-21.003,8.221-41.658,22.767-60.631
			c18.743-24.446,48.067-37.391,78.021-41.394c43.531-5.818,81.85,4.436,122.49-19.308c12.535-7.324,23.904-16.538,36.59-23.598
			c37.421-20.823,79.506-5.405,105.31,26.441c53.83,66.435,51.732,167.958,26.323,245.347
			c-11.403,34.73-37.259,62.839-70.235,78.577c-74.582,35.595-174.279-1.421-235.822-47.777
			C81.294,345.187,38.145,282.214,41.743,222.098z"/>
	</g>
</g>
<g id="Graphics_1">
	<g>
		<path style="fill:none;stroke:#263238;stroke-linecap:round;stroke-linejoin:round;stroke-miterlimit:10;" d="M103.809,208.691
			c6.343-2.587,10.659,1.073,12.675,3.493c1.553-2.741,5.16-7.112,11.862-5.696c7.274,1.547,10.543,10.345,5.326,19.116
			c-3.761,6.306-10.307,10.977-13.678,13.091c-0.403,0.255-0.772,0.47-1.073,0.643c-0.326-0.117-0.729-0.263-1.17-0.442
			c-3.694-1.479-10.967-4.911-15.779-10.447C95.265,220.75,96.927,211.509,103.809,208.691z"/>
		<path style="fill:none;stroke:#263238;stroke-linecap:round;stroke-linejoin:round;stroke-miterlimit:10;" d="M134.266,244.739
			c3.123-0.439,4.636,1.68,5.263,2.988c1.002-1.048,3.104-2.592,5.936-1.205c3.072,1.51,3.539,5.805,0.222,9.131
			c-2.389,2.39-5.837,3.737-7.58,4.3c-0.208,0.068-0.398,0.123-0.551,0.166c-0.132-0.089-0.296-0.199-0.472-0.329
			c-1.482-1.077-4.341-3.428-5.864-6.441C129.094,249.157,130.877,245.221,134.266,244.739z"/>
	</g>
	<g>
		<path style="fill:none;stroke:#263238;stroke-linecap:round;stroke-linejoin:round;stroke-miterlimit:10;" d="M74.252,283.567
			c0,0,7.672-3.899,10.054-3.599c2.381,0.3-4.233,2.999,0,2.999c4.233,0,5.82-1.5,5.82-0.6c0,0.9,0.308,1.649,2.403,1.2
			c2.095-0.45,2.624,0.119,3.682,0.134c1.058,0.016,3.58-0.284,5.494-0.884c1.914-0.6,4.03-1.35,5.353-0.3
			c1.323,1.05,0.794,1.62,5.556,1.185c4.762-0.435,8.201,0.147,8.201,0.147"/>
		<path style="fill:none;stroke:#263238;stroke-linecap:round;stroke-linejoin:round;stroke-miterlimit:10;" d="M74.064,301.329
			c3.727-0.719,11.981-4.768,9.585-4.318c-2.396,0.45-6.922,3.149-1.065,3.299s7.189-1.949,8.786-2.549c1.597-0.6,7.189,0,7.987,0
			c0.799,0-4.526,1.134,0,1.392c4.526,0.258,4.965-0.558,6.742,0c1.777,0.558,4.706,0,4.706,0s0.832,0.858,5.075,1.007
			c4.243,0.15,7.438,0,7.438,0"/>
		<path style="fill:none;stroke:#263238;stroke-linecap:round;stroke-linejoin:round;stroke-miterlimit:10;" d="M71.135,291.941
			c0,0,11.182-0.512,13.312-1.111c2.13-0.6,1.065-2.099,3.994-1.5c2.929,0.6,4.792-0.578,7.322-0.139
			c2.529,0.439,9.106,0.014,6.257-1.061c-2.85-1.074-8.218,2.549-2.112,2.699c6.106,0.15,8.768-0.437,9.301-0.893
			c0.533-0.456,3.744,0.893,3.744,0.893s3.445-1.187,5.042-0.893c1.597,0.294,8.254,1.043,8.254,1.043"/>
	</g>
</g>
<g id="Graphics_3">
	<g>
		<path style="fill:none;stroke:#263238;stroke-linecap:round;stroke-linejoin:round;stroke-miterlimit:10;" d="M397.44,294.856
			c-0.495,3.248-0.109,6.425,0.999,9.284c0.54,1.443,1.274,2.806,2.161,4.049c2.774,3.92,7.074,6.752,12.194,7.532
			c10,1.524,19.34-5.346,20.864-15.346c1.524-10-5.346-19.34-15.346-20.864C408.312,277.987,398.964,284.856,397.44,294.856z"/>
		<path style="fill:none;stroke:#263238;stroke-linecap:round;stroke-linejoin:round;stroke-miterlimit:10;" d="M406.879,304.653
			c0,0,4.087-4.157,9.029-3.404c4.941,0.753,6.798,5.001,6.798,5.001"/>
		<path style="fill:none;stroke:#263238;stroke-linecap:round;stroke-linejoin:round;stroke-miterlimit:10;" d="M421.197,290.174
			c0,0,1.485,3.222,5.623,3.803"/>
		<path style="fill:none;stroke:#263238;stroke-linecap:round;stroke-linejoin:round;stroke-miterlimit:10;" d="M424.472,294.664
			c-0.132,0.87-0.945,1.468-1.815,1.335c-0.87-0.133-1.467-0.945-1.335-1.815c0.133-0.87,0.945-1.467,1.815-1.335
			C424.007,292.982,424.604,293.794,424.472,294.664z"/>
		<path style="fill:none;stroke:#263238;stroke-linecap:round;stroke-linejoin:round;stroke-miterlimit:10;" d="M424.365,295.351
			c0,0,1.562,0.396,0.818,2.159c-0.737,1.771,2.338,2.16,2.79,2.775c0.452,0.615-1.066,2.892,0.62,3.616
			c1.694,0.725,1.549,2.191,1.053,3.373c-0.172,0.401,0.003,1.021,0.292,1.667"/>
		<path style="fill:none;stroke:#263238;stroke-linecap:round;stroke-linejoin:round;stroke-miterlimit:10;" d="M422.659,296.001
			c0.009,1.6-0.54,2.608,1.736,4.134c2.269,1.517,0.045,3.291,0.45,4.215c0.414,0.918,2.989,0.432,1.465,3.262
			c-0.869,1.601-0.296,3.342,0.359,4.55"/>
		<path style="fill:none;stroke:#263238;stroke-linecap:round;stroke-linejoin:round;stroke-miterlimit:10;" d="M412.373,288.829
			c0,0-2.378,2.633-6.5,1.955"/>
		<path style="fill:none;stroke:#263238;stroke-linecap:round;stroke-linejoin:round;stroke-miterlimit:10;" d="M407.909,292.14
			c-0.132,0.87,0.465,1.682,1.335,1.815c0.87,0.133,1.682-0.465,1.815-1.335s-0.465-1.682-1.335-1.815
			C408.855,290.673,408.042,291.271,407.909,292.14z"/>
		<path style="fill:none;stroke:#263238;stroke-linecap:round;stroke-linejoin:round;stroke-miterlimit:10;" d="M398.438,304.14
			c0.469-0.53,0.82-1.07,0.775-1.504c-0.122-1.277,0.177-2.719,2.01-2.906c1.825-0.189,1.054-2.815,1.669-3.267
			c0.615-0.452,3.666,0.092,3.49-1.818c-0.185-1.904,1.424-1.817,1.424-1.817"/>
		<path style="fill:none;stroke:#263238;stroke-linecap:round;stroke-linejoin:round;stroke-miterlimit:10;" d="M400.599,308.189
			c0.985-0.958,2.051-2.449,1.698-4.236c-0.611-3.156,1.702-1.925,2.371-2.677c0.662-0.762-0.933-3.118,1.685-3.89
			c2.627-0.779,2.403-1.905,2.889-3.429"/>
	</g>
	<g>
		<path style="fill:none;stroke:#263238;stroke-linecap:round;stroke-linejoin:round;stroke-miterlimit:10;" d="M313.822,162.961
			c1.578,4.448,4.223,8.208,7.565,11.076c1.663,1.461,3.517,2.687,5.483,3.659c6.172,3.081,13.538,3.747,20.549,1.26
			c13.694-4.857,20.855-19.893,15.998-33.586c-4.857-13.693-19.893-20.855-33.586-15.998
			C316.138,134.228,308.965,149.268,313.822,162.961z"/>
		<path style="fill:none;stroke:#263238;stroke-linecap:round;stroke-linejoin:round;stroke-miterlimit:10;" d="M353.916,147.332
			c0,0-2.545,4.794-13.645,8.239c-9.815,3.046-17.716,2.413-17.716,2.413s4.584,18.42,22.31,13.783
			C362.59,167.132,353.916,147.332,353.916,147.332z"/>
		<path style="fill:none;stroke:#263238;stroke-linecap:round;stroke-linejoin:round;stroke-miterlimit:10;" d="M340.72,140.911
			c0,0-0.192-7.636,6.763-1.202"/>
		<path style="fill:none;stroke:#263238;stroke-linecap:round;stroke-linejoin:round;stroke-miterlimit:10;" d="M328.637,145.197
			c0,0-4.399-4.082-4.865,2.923"/>
		<path style="fill:none;stroke:#263238;stroke-linecap:round;stroke-linejoin:round;stroke-miterlimit:10;" d="M343.099,164.376
			c0,0,4.184-4.826,7.206-4.286c3.022,0.54,2.371,6.313-6.134,9.33c-8.505,3.017-12.11-0.926-11.9-3.99
			C332.48,162.365,343.099,164.376,343.099,164.376z"/>
		<path style="fill:none;stroke:#263238;stroke-linecap:round;stroke-linejoin:round;stroke-miterlimit:10;" d="M349.119,139.128
			c0,0,8.146-2.3,6.882,1.45C354.737,144.329,349.119,139.128,349.119,139.128z"/>
		<path style="fill:none;stroke:#263238;stroke-linecap:round;stroke-linejoin:round;stroke-miterlimit:10;" d="M322.201,148.677
			c0,0-6.883,1.54-5.22,4.231C318.642,155.599,322.201,148.677,322.201,148.677z"/>
	</g>
	<g>
		<path style="fill:none;stroke:#263238;stroke-linecap:round;stroke-linejoin:round;stroke-miterlimit:10;" d="M355.162,196.369
			c0,0,8.245-4.19,10.804-3.868c2.559,0.322-4.549,3.223,0,3.223c4.549,0,6.255-1.611,6.255-0.645c0,0.967,0.331,1.773,2.582,1.289
			c2.251-0.483,2.82,0.128,3.957,0.145c1.137,0.017,3.847-0.306,5.904-0.95c2.057-0.645,4.331-1.45,5.753-0.322
			c1.422,1.128,0.853,1.741,5.971,1.273c5.118-0.467,8.814,0.158,8.814,0.158"/>
		<path style="fill:none;stroke:#263238;stroke-linecap:round;stroke-linejoin:round;stroke-miterlimit:10;" d="M356.441,237.784
			c0,0,8.245-4.19,10.804-3.867c2.559,0.322-4.549,3.223,0,3.223c4.549,0,6.255-1.611,6.255-0.645c0,0.967,0.331,1.773,2.582,1.289
			c2.251-0.483,2.82,0.128,3.957,0.145c1.137,0.017,3.847-0.306,5.904-0.95c2.057-0.645,4.331-1.45,5.753-0.322
			c1.421,1.128,0.853,1.74,5.97,1.273c5.118-0.467,8.814,0.158,8.814,0.158"/>
		<path style="fill:none;stroke:#263238;stroke-linecap:round;stroke-linejoin:round;stroke-miterlimit:10;" d="M355.162,205.865
			c4.709-0.723,15.136-4.793,12.109-4.341c-3.027,0.452-8.746,3.166-1.346,3.317c7.4,0.151,9.082-1.96,11.1-2.563
			c2.018-0.603,9.082,0,10.091,0s-5.718,1.14,0,1.399c5.718,0.259,6.273-0.561,8.518,0c2.245,0.561,5.945,0,5.945,0
			s1.051,0.862,6.412,1.013c5.361,0.151,9.397,0,9.397,0"/>
		<path style="fill:none;stroke:#263238;stroke-linecap:round;stroke-linejoin:round;stroke-miterlimit:10;" d="M356.239,256.872
			c4.006-0.773,12.875-5.124,10.3-4.64c-2.575,0.483-7.439,3.384-1.144,3.545c6.294,0.161,7.725-2.095,9.442-2.74
			c1.717-0.645,7.725,0,8.583,0c0.858,0-4.864,1.219,0,1.496c4.864,0.277,5.336-0.599,7.246,0c1.91,0.599,5.057,0,5.057,0
			s0.894,0.921,5.454,1.083c4.56,0.161,7.993,0,7.993,0"/>
		<path style="fill:none;stroke:#263238;stroke-linecap:round;stroke-linejoin:round;stroke-miterlimit:10;" d="M355.162,230.729
			c3.98-0.773,12.794-5.124,10.235-4.64c-2.559,0.484-7.392,3.384-1.137,3.545c6.255,0.161,7.676-2.095,9.382-2.74
			c1.706-0.645,7.676,0,8.529,0c0.853,0-4.833,1.219,0,1.496c4.833,0.277,5.302-0.599,7.2,0c1.898,0.599,5.025,0,5.025,0
			s0.888,0.922,5.42,1.083c4.531,0.161,7.943,0,7.943,0"/>
		<path style="fill:none;stroke:#263238;stroke-linecap:round;stroke-linejoin:round;stroke-miterlimit:10;" d="M353.74,214.412
			c3.933-0.962,4.72-4.042,7.342-3.079c2.622,0.962,5.769,0.402,6.556-0.184c0.787-0.586,3.409-1.548,4.458-1.548
			c1.049,0,0,1.155,0,2.406c0,1.251,3.409,0.481,4.196,0c0.787-0.481,2.098-1.059,3.016,0c0.918,1.059,0.918,1.059,0.918,1.059
			s1.839,0,2.362-1.059c0.523-1.059,2.096-2.983,4.718-2.406c2.622,0.577-0.787,1.241,1.049,2.353
			c1.836,1.111,2.36-2.353,4.196-0.813c1.836,1.54,0,2.31,1.573,2.31s9.798-1.329,13.636-0.385"/>
		<path style="fill:none;stroke:#263238;stroke-linecap:round;stroke-linejoin:round;stroke-miterlimit:10;" d="M355.162,222.542
			c0,0,11.941-0.55,14.216-1.194c2.275-0.645,1.137-2.256,4.265-1.611c3.128,0.645,5.118-0.621,7.819-0.149
			c2.701,0.472,9.724,0.015,6.681-1.14c-3.043-1.154-8.776,2.74-2.256,2.901c6.52,0.161,9.363-0.47,9.932-0.96
			c0.569-0.49,3.998,0.96,3.998,0.96s3.678-1.275,5.384-0.96c1.706,0.315,8.814,1.121,8.814,1.121"/>
		<path style="fill:none;stroke:#263238;stroke-linecap:round;stroke-linejoin:round;stroke-miterlimit:10;" d="M353.092,246.783
			c0,0,12.017-0.55,14.306-1.194c2.289-0.645,1.145-2.256,4.292-1.611c3.147,0.645,5.15-0.621,7.868-0.149
			c2.718,0.472,9.786,0.015,6.724-1.14c-3.062-1.155-8.832,2.739-2.27,2.901c6.562,0.161,9.423-0.469,9.995-0.96
			s4.023,0.96,4.023,0.96s3.702-1.275,5.418-0.96c1.717,0.315,8.869,1.121,8.869,1.121"/>
	</g>
</g>
<g id="Graphics_2">
	<g>
		<path style="fill:none;stroke:#263238;stroke-linecap:round;stroke-linejoin:round;stroke-miterlimit:10;" d="M258.15,119.771
			c4.337-15.991-5.11-32.471-21.101-36.808c-15.991-4.337-32.471,5.11-36.808,21.101c-2.943,10.85,0.473,21.914,7.96,29.268
			l-0.061,3.959l26.404,7.162l1.947-3.447C246.669,138.443,255.207,130.621,258.15,119.771z"/>
		<path style="fill:none;stroke:#263238;stroke-linecap:round;stroke-linejoin:round;stroke-miterlimit:10;" d="M222.89,167.026
			l-16.1-4.367c-2.126-0.577-3.468-2.673-3.101-4.845l3.509-20.778l28.287,7.673l-7.472,19.703
			C227.233,166.472,225.016,167.603,222.89,167.026z"/>
		<path style="fill:none;stroke:#263238;stroke-linecap:round;stroke-linejoin:round;stroke-miterlimit:10;" d="M223.095,167.477
			c-0.765,2.82-5.125,4.091-9.739,2.839c-4.614-1.251-7.734-4.552-6.969-7.371"/>
		<polyline style="fill:none;stroke:#263238;stroke-linecap:round;stroke-linejoin:round;stroke-miterlimit:10;" points="
			213.16,115.057 219.875,116.879 226.454,109.196 226.732,127.458 235.933,113.745 236.688,121.065 241.541,122.382 		"/>
		
			<line style="fill:none;stroke:#263238;stroke-linecap:round;stroke-linejoin:round;stroke-miterlimit:10;" x1="242.453" y1="71.68" x2="251.678" y2="53.615"/>
		
			<line style="fill:none;stroke:#263238;stroke-linecap:round;stroke-linejoin:round;stroke-miterlimit:10;" x1="268.978" y1="90.493" x2="283.714" y2="85.431"/>
		
			<line style="fill:none;stroke:#263238;stroke-linecap:round;stroke-linejoin:round;stroke-miterlimit:10;" x1="268.449" y1="124.66" x2="282.136" y2="126.731"/>
		
			<line style="fill:none;stroke:#263238;stroke-linecap:round;stroke-linejoin:round;stroke-miterlimit:10;" x1="208.475" y1="77.198" x2="201.053" y2="55.685"/>
		
			<line style="fill:none;stroke:#263238;stroke-linecap:round;stroke-linejoin:round;stroke-miterlimit:10;" x1="188.763" y1="112.603" x2="178.551" y2="111.058"/>
	</g>
	<g>
		<path style="fill:none;stroke:#263238;stroke-linecap:round;stroke-linejoin:round;stroke-miterlimit:10;" d="M110.347,156.58
			c3.931-0.76,6.375-4.426,10.652-3.815l0.611,0.611c-0.611,0.611-1.222,1.222-1.833,1.833c2.444,1.833,4.888,0,7.332,0
			c0.611,0,0.611,1.222,1.222,1.222c5.499,0.611,10.998-0.611,16.497-1.222c1.833,1.833,5.499,2.444,7.959,1.423"/>
		<path style="fill:none;stroke:#263238;stroke-linecap:round;stroke-linejoin:round;stroke-miterlimit:10;" d="M110.145,175.667
			c4.133-0.295,7.188-2.739,10.854-4.572c-1.833,1.222-3.666,0-4.888,2.444c3.666,2.444,8.554,0,12.22-1.222
			c3.055-1.222,6.11-0.611,9.084-0.466c-1.139,0.515-2.672-0.212,0,0c-1.139,0.515-3.253,1.095-0.714,1.432
			c2.507,0.333,5.471-0.739,7.87,0.046"/>
		<path style="fill:none;stroke:#263238;stroke-linecap:round;stroke-linejoin:round;stroke-miterlimit:10;" d="M109.068,149.525
			c3.98-0.773,12.794-5.124,10.235-4.64c-2.559,0.483-7.392,3.384-1.137,3.545c6.255,0.161,7.676-2.095,9.382-2.74
			c1.706-0.645,7.676,0,8.529,0c0.853,0-4.833,1.219,0,1.496c4.833,0.277,5.302-0.599,7.2,0c1.898,0.599,5.025,0,5.025,0
			s0.888,0.921,5.42,1.083c4.531,0.161,19.404,0.863,19.404,0.863"/>
		<path style="fill:none;stroke:#263238;stroke-linecap:round;stroke-linejoin:round;stroke-miterlimit:10;" d="M109.068,141.337
			c0,0,11.941-0.55,14.216-1.194c2.275-0.645,1.137-2.256,4.265-1.611c3.127,0.645,5.118-0.621,7.818-0.149
			c2.701,0.472,9.724,0.015,6.681-1.14c-3.043-1.155-8.776,2.74-2.256,2.901c6.52,0.161,9.363-0.47,9.932-0.96
			c0.569-0.49,3.998,0.96,3.998,0.96s3.678-1.275,5.384-0.96c1.706,0.315,8.814,1.121,8.814,1.121"/>
		<path style="fill:none;stroke:#263238;stroke-linecap:round;stroke-linejoin:round;stroke-miterlimit:10;" d="M106.998,165.579
			c0,0,12.017-0.55,14.306-1.194c2.289-0.645,1.145-2.256,4.292-1.612c3.147,0.645,5.15-0.621,7.868-0.149
			c2.718,0.472,9.786,0.015,6.724-1.14c-3.062-1.154-8.832,2.74-2.27,2.901c6.562,0.161,9.423-0.47,9.995-0.96
			c0.572-0.49,4.023,0.96,4.023,0.96s3.702-1.275,5.418-0.96c1.717,0.315,8.87,1.121,8.87,1.121"/>
	</g>
</g>
<g id="Character">
	<g>
		<path style="fill:#263238;" d="M237.471,192.905c0,0,4.084-32.545,26.742-25.298c22.658,7.247,28.372,32.889,24.833,56.04
			c-3.54,23.151,0.474,27.394,0.474,27.394s-6.526-7.524-4.23-24.025c0,0-3.482,18.514-0.324,25.896c0,0-1.649,3.704-6.531,2.546
			c0,0-8.242-19.504-8.183-37.623C270.31,199.718,237.471,192.905,237.471,192.905z"/>
		<g style="opacity:0.2;">
			<path style="fill:none;stroke:#FFFFFF;stroke-linecap:round;stroke-linejoin:round;stroke-miterlimit:10;" d="M246.934,184.326
				c0,0,3.34-15.238,16.807-14.249"/>
			<path style="fill:none;stroke:#FFFFFF;stroke-linecap:round;stroke-linejoin:round;stroke-miterlimit:10;" d="M256.699,189.926
				c0,0,4.168-10.075,11.943-9.522c7.775,0.552,15.819,15.178,15.16,27.349s-6.509,29.725-1.211,43.201"/>
			<path style="fill:none;stroke:#FFFFFF;stroke-linecap:round;stroke-linejoin:round;stroke-miterlimit:10;" d="M262.459,196.034
				c0,0,9.508-2.756,12.03,6.116c2.522,8.872,0,28.887,0,28.887"/>
		</g>
		<path style="fill:#92E3A9;stroke:#263238;stroke-linecap:round;stroke-linejoin:round;stroke-miterlimit:10;" d="M235.27,190.253
			c0,0,0.796-4.352,7.719-2.967c6.923,1.385,20.299,7.912,13.71,13.648C250.11,206.67,235.27,190.253,235.27,190.253z"/>
		<g>
			<g>
				<defs>
					<path id="XMLID_748_" d="M144.697,365.869c16.15,8.649,33.087-0.27,33.087-0.27c13.3,8.918,20.126,7.32,20.126,7.32
						l33.428,55.356l146.09-2.873c0,0,1.534-38.632,0-51.387c-7.949-66.083-40.676-79.519-75.013-87.977
						c-34.337-8.458-69.704-7.103-97.898,0.41c-38.4,10.232-59.82,30.855-59.82,30.855s-19.893,4.004-24.295,15.493
						C120.402,332.796,135.653,361.026,144.697,365.869z"/>
				</defs>
				<use xlink:href="#XMLID_748_"  style="overflow:visible;fill:#92E3A9;"/>
				<clipPath id="XMLID_00000053531693351491006130000013476038965268358056_">
					<use xlink:href="#XMLID_748_"  style="overflow:visible;"/>
				</clipPath>
				<path style="opacity:0.3;clip-path:url(#XMLID_00000053531693351491006130000013476038965268358056_);fill-opacity:0.7;" d="
					M351.58,396.99L203.39,382l-5.48-9.08c0,0-6.83,1.6-20.13-7.32c0,0-11.38,6-24.38,3.39c19.32-20.49,3.57-39.95,3.57-39.95
					c7.15,2.31,9.15,8.77,9.15,8.77s-0.08-10.28,2.68-8.77c2.76,1.52,11.49,17.63,11.49,17.63c-4.36-38.7,10.79-43.18,10.79-43.18
					c-9.38,27.74,13.34,67.16,48.15,75.73c34.81,8.58,79.52,4.26,79.52,4.26c-3.96-4.96-2.88-14.56-2.88-14.56
					c3.39,3.97,16.33,10.3,16.33,10.3c-5.15-12.78,5.14-22.69,5.14-22.69L351.58,396.99z"/>
				<path style="opacity:0.3;clip-path:url(#XMLID_00000053531693351491006130000013476038965268358056_);fill-opacity:0.7;" d="
					M305.93,317.3c-24.28,26.96-58.44,9.04-58.44,9.04c-24.58,8.7-33.48-16.1-33.71-18.37c-1.16-11.65,4.27-19.96,12.64-25.88
					c23.56-3.23,50.07-2.44,76,3.95c2.45,0.6,4.89,1.23,7.31,1.91C314.57,296.27,315.69,306.47,305.93,317.3z"/>
				
					<use xlink:href="#XMLID_748_"  style="overflow:visible;fill:none;stroke:#263238;stroke-linecap:round;stroke-linejoin:round;stroke-miterlimit:10;"/>
			</g>
			<path style="fill:#92E3A9;stroke:#263238;stroke-linecap:round;stroke-linejoin:round;stroke-miterlimit:10;" d="
				M236.566,329.381c0,0-13.475-3.74-6.059-25.63c7.416-21.89,14.722-36.716,36.526-36.431
				c21.804,0.285,37.418,18.941,38.776,26.245c1.358,7.304-8.343,32.637-28.441,40.506"/>
			<path style="fill:none;stroke:#263238;stroke-linecap:round;stroke-linejoin:round;stroke-miterlimit:10;" d="M191.083,353.582
				c0,0-7.935-25.898-1.931-39.136"/>
			<g style="opacity:0.4;">
				<path style="fill:none;stroke:#263238;stroke-linecap:round;stroke-linejoin:round;stroke-miterlimit:10;" d="M248.333,355.317
					c0.075,7.575,1.302,15.121,3.158,22.452"/>
				<path style="fill:none;stroke:#263238;stroke-linecap:round;stroke-linejoin:round;stroke-miterlimit:10;" d="M249.256,344.802
					c-0.434,1.783-0.639,3.625-0.771,5.452"/>
				<path style="fill:none;stroke:#263238;stroke-linecap:round;stroke-linejoin:round;stroke-miterlimit:10;" d="M269.18,378.206
					c0.363,1.099,0.759,2.186,1.201,3.255"/>
				<path style="fill:none;stroke:#263238;stroke-linecap:round;stroke-linejoin:round;stroke-miterlimit:10;" d="M262.459,346.671
					C265,356,265,366,268.074,374.54"/>
				<path style="fill:none;stroke:#263238;stroke-linecap:round;stroke-linejoin:round;stroke-miterlimit:10;" d="M278.527,344.802
					c0,0,12.396,26.726,14.505,39.077"/>
				<path style="fill:none;stroke:#263238;stroke-linecap:round;stroke-linejoin:round;stroke-miterlimit:10;" d="M299.008,347.94
					c5.514,12.127,10.57,24.708,13.476,37.741"/>
				<path style="fill:none;stroke:#263238;stroke-linecap:round;stroke-linejoin:round;stroke-miterlimit:10;" d="M294.352,338.209
					c1.014,1.987,1.984,3.996,2.935,6.014"/>
				<path style="fill:none;stroke:#263238;stroke-linecap:round;stroke-linejoin:round;stroke-miterlimit:10;" d="M237.471,340.319
					c0,0-5.603,16.806-4.893,36.84"/>
				<path style="fill:none;stroke:#263238;stroke-linecap:round;stroke-linejoin:round;stroke-miterlimit:10;" d="M218.387,343.129
					c-3.321,9.525-4.386,19.748-3.926,29.79"/>
				<path style="fill:none;stroke:#263238;stroke-linecap:round;stroke-linejoin:round;stroke-miterlimit:10;" d="M224.766,330.56
					c-1.925,2.456-3.388,5.309-4.641,8.151"/>
				<path style="fill:none;stroke:#263238;stroke-linecap:round;stroke-linejoin:round;stroke-miterlimit:10;" d="M211.275,317.374
					c0,0-13.362,15.297-14.989,33.231"/>
				<path style="fill:none;stroke:#263238;stroke-linecap:round;stroke-linejoin:round;stroke-miterlimit:10;" d="M319.304,345.205
					c0.921,1.754,1.754,3.554,2.476,5.399"/>
				<path style="fill:none;stroke:#263238;stroke-linecap:round;stroke-linejoin:round;stroke-miterlimit:10;" d="M299.413,321.259
					c6.958,5.622,13.1,12.657,17.786,20.258"/>
				<path style="fill:none;stroke:#263238;stroke-linecap:round;stroke-linejoin:round;stroke-miterlimit:10;" d="M308.593,307.488
					c0,0,15.033,2.501,21.626,11.204"/>
				<path style="fill:none;stroke:#263238;stroke-linecap:round;stroke-linejoin:round;stroke-miterlimit:10;" d="M308.593,293.565
					c0,0,10.896-1.241,19.902,3.115"/>
				<path style="fill:none;stroke:#263238;stroke-linecap:round;stroke-linejoin:round;stroke-miterlimit:10;" d="M203.275,304.568
					c1.745-0.493,3.546-0.807,5.362-0.817"/>
				<path style="fill:none;stroke:#263238;stroke-linecap:round;stroke-linejoin:round;stroke-miterlimit:10;" d="M193.413,309.198
					c1.869-1.255,3.876-2.32,5.939-3.216"/>
				<path style="fill:none;stroke:#263238;stroke-linecap:round;stroke-linejoin:round;stroke-miterlimit:10;" d="M189.72,303.486
					c-6.401-0.618-28.872,16.144-28.872,16.144s-6.012-0.987-10.76,4.048"/>
				<path style="fill:none;stroke:#263238;stroke-linecap:round;stroke-linejoin:round;stroke-miterlimit:10;" d="M183.582,332.353
					l-7.385,4.273c0,0-4.005,6.707-10.081,6.503"/>
				<path style="fill:none;stroke:#263238;stroke-linecap:round;stroke-linejoin:round;stroke-miterlimit:10;" d="M186.959,356.531
					c0,0-3.377,2.056-6.014,1.493c0,0-11.54,8.141-18.034,5.239"/>
			</g>
			<g style="opacity:0.4;">
				<path style="fill:none;stroke:#263238;stroke-linecap:round;stroke-linejoin:round;stroke-miterlimit:10;" d="M249.256,325.549
					c0,0-2.912,3.692,2.235,8.44"/>
				<path style="fill:none;stroke:#263238;stroke-linecap:round;stroke-linejoin:round;stroke-miterlimit:10;" d="M266.604,330.718
					c0.336,1.055,0.499,2.164,0.43,3.271"/>
				<path style="fill:none;stroke:#263238;stroke-linecap:round;stroke-linejoin:round;stroke-miterlimit:10;" d="M262.307,323.679
					c1.033,1.116,1.947,2.348,2.733,3.649"/>
				<path style="fill:none;stroke:#263238;stroke-linecap:round;stroke-linejoin:round;stroke-miterlimit:10;" d="M274.489,315.791
					c0,0,5.837,1.319,8.103,9.758"/>
				<path style="fill:none;stroke:#263238;stroke-linecap:round;stroke-linejoin:round;stroke-miterlimit:10;" d="M294.031,309.42
					c0.835,1.579,1.415,3.281,1.788,5.026"/>
				<path style="fill:none;stroke:#263238;stroke-linecap:round;stroke-linejoin:round;stroke-miterlimit:10;" d="M283.802,301.972
					c2.791,0.361,5.461,1.794,7.465,3.739"/>
				<path style="fill:none;stroke:#263238;stroke-linecap:round;stroke-linejoin:round;stroke-miterlimit:10;" d="M285.78,286.038
					c0,0,8.835-5.06,15.956,6.017"/>
				<path style="fill:none;stroke:#263238;stroke-linecap:round;stroke-linejoin:round;stroke-miterlimit:10;" d="M278.54,275.396
					c1.288-1.683,3.678-2.221,5.679-2.317"/>
				<path style="fill:none;stroke:#263238;stroke-linecap:round;stroke-linejoin:round;stroke-miterlimit:10;" d="M237.471,325.549
					c0,0-1.383-4.388,2.024-6.857"/>
			</g>
		</g>
		<g>
			<polygon style="fill:#FFFFFF;" points="474.93,411.23 474.93,483.99 25.07,483.99 25.32,356.53 83.48,363.61 195.61,377.25 
				368.4,398.27 457.13,409.06 			"/>
			<path style="opacity:0.4;fill:#92E3A9;" d="M450.51,426.18c-13.14,16.47-142.5,11.3-149.03,7.03
				c-6.52-4.28-14.89-6.24-14.89-6.24s-30.65,3.86-36.46,0.54c-5.81-3.32-17.94-2.11-17.94-2.11l-28.83,11.75l-154.8-20.54
				l36.99-12.79c0,0-22.82-2.35-27.24-10.24c-4.41-7.9,25.17-29.97,25.17-29.97l112.13,13.64l-40.49,3.49l-21.42,9.81l56.18,10.66
				l62.97-2.52l115.55-0.42l88.73,10.79C457.26,413.69,455.79,419.55,450.51,426.18z"/>
			
				<line style="fill:none;stroke:#263238;stroke-linecap:round;stroke-linejoin:round;stroke-miterlimit:10;" x1="25.324" y1="356.531" x2="474.931" y2="411.228"/>
		</g>
		<g>
			<polygon style="fill:#92E3A9;stroke:#263238;stroke-linecap:round;stroke-linejoin:round;stroke-miterlimit:10;" points="
				213.19,432.872 66.146,413.717 119.043,390.553 266.087,409.708 			"/>
			<g>
				<defs>
					<path id="XMLID_752_" d="M185.87,399.26l-41.17,21.23l-70.21-8.78l-3.05-3.17l2.93-1.36h0.01l41.35-19.16
						c0,0,16.55-6.11,36.15-1.79c13.12,2.9,23.91,7.76,29.6,10.65C184.3,398.31,185.87,399.26,185.87,399.26z"/>
				</defs>
				<use xlink:href="#XMLID_752_"  style="overflow:visible;fill:#FFFFFF;"/>
				<clipPath id="XMLID_00000175286821323004265690000010679274644795437958_">
					<use xlink:href="#XMLID_752_"  style="overflow:visible;"/>
				</clipPath>
				<path style="opacity:0.3;clip-path:url(#XMLID_00000175286821323004265690000010679274644795437958_);fill-opacity:0.7;" d="
					M185.87,399.26l-41.17,21.23l-70.21-8.78l-3.05-3.17l2.93-1.36h0.01c6.07-1.13,14.87-2.04,24.31-0.84
					c16.58,2.09,35.67,8.53,35.67,8.53s4.98,3.58,7.35-0.74c2.38-4.32,13.55-4.32,19.14-6.1c5.38-1.71,14-9.85,20.63-11.15
					C184.3,398.31,185.87,399.26,185.87,399.26z"/>
				
					<use xlink:href="#XMLID_752_"  style="overflow:visible;fill:none;stroke:#263238;stroke-linecap:round;stroke-linejoin:round;stroke-miterlimit:10;"/>
			</g>
			<g>
				<defs>
					<path id="XMLID_753_" d="M262.31,404.73l-2.92,4.11l-45.31,20.67l-69.38-9.02l4.22-2.18l36.95-19.05c0,0,12.34-4.44,29.44-4.37
						c15.12,0.06,43.44,8.73,46.69,9.74C262.2,404.7,262.31,404.73,262.31,404.73z"/>
				</defs>
				<use xlink:href="#XMLID_753_"  style="overflow:visible;fill:#FFFFFF;"/>
				<clipPath id="XMLID_00000114775809964270802590000009916713271579527354_">
					<use xlink:href="#XMLID_753_"  style="overflow:visible;"/>
				</clipPath>
				<path style="opacity:0.3;clip-path:url(#XMLID_00000114775809964270802590000009916713271579527354_);fill-opacity:0.7;" d="
					M262.31,404.73l-2.92,4.11l-45.31,20.67l-69.38-9.02l4.22-2.18c8.97-2.14,21.38-4.12,31.36-2.41c17.51,3,32.95,8.27,32.95,8.27
					s37.02-15.74,48.77-19.54C262.2,404.7,262.31,404.73,262.31,404.73z"/>
				
					<use xlink:href="#XMLID_753_"  style="overflow:visible;fill:none;stroke:#263238;stroke-linecap:round;stroke-linejoin:round;stroke-miterlimit:10;"/>
			</g>
			<path style="fill:none;stroke:#263238;stroke-linecap:round;stroke-linejoin:round;stroke-miterlimit:10;" d="M144.697,420.495
				c0,0,10.492-4.221,29.585-4.73c19.093-0.509,38.949,8.401,38.949,8.401l45.822-18.583"/>
			<path style="fill:none;stroke:#263238;stroke-linecap:round;stroke-linejoin:round;stroke-miterlimit:10;" d="M156.971,419.074
				c0,0,27.366-0.382,56.387,8.019l19.22-8.088"/>
			<path style="fill:none;stroke:#263238;stroke-linecap:round;stroke-linejoin:round;stroke-miterlimit:10;" d="M71.436,408.541
				c0,0,10.947-4.742,37.167-1.178c26.221,3.564,34.876,11.641,34.876,11.641"/>
			<path style="fill:none;stroke:#263238;stroke-linecap:round;stroke-linejoin:round;stroke-miterlimit:10;" d="M73.373,410.552
				c0,0,11.555-2.921,32.939,0c21.384,2.921,34.621,8.453,34.621,8.453"/>
			<g style="opacity:0.4;">
				<path style="fill:none;stroke:#263238;stroke-linecap:round;stroke-linejoin:round;stroke-miterlimit:10;" d="M149.73,412.925
					c0,0-4.413-0.085-3.841-1.697s-4.315-1.414-5.827-2.799c-1.512-1.385-3.688-1.62-4.875-2.392
					c-1.187-0.773,1.78-0.89-2.374-2.216c-4.154-1.326-5.209,0.877-9.363-0.601c-4.154-1.477,2.292-1.578-3.692-2.007
					c-5.985-0.428-2.889,0.301-8.466,0c-5.577-0.301-5.182,1.29-6.764,0c-1.582-1.29-15.797,1.374-15.797,1.374"/>
				<path style="fill:none;stroke:#263238;stroke-linecap:round;stroke-linejoin:round;stroke-miterlimit:10;" d="M158.011,408.863
					c-1.114-0.501-2.228-1.003-3.341-1.504c-0.439-0.198-0.935-0.465-1.017-0.939c-0.05-0.29,0.068-0.615-0.082-0.868
					c-0.155-0.26-0.506-0.302-0.808-0.316c-1.003-0.047-2.006-0.094-3.009-0.142c-0.461-1.063-1.616-1.655-2.743-1.926
					c-1.127-0.271-2.309-0.31-3.404-0.691c-0.751-0.262-1.436-0.677-2.131-1.064c-4.928-2.743-10.571-4.139-16.211-4.202
					c0.466-0.346,0.931-0.693,1.397-1.039c-3.849-0.481-7.808-0.053-11.465,1.238c0.369-0.331,0.583-0.828,0.571-1.323
					c-4.293,0.388-8.586,0.775-12.879,1.163"/>
				<path style="fill:none;stroke:#263238;stroke-linecap:round;stroke-linejoin:round;stroke-miterlimit:10;" d="M166.436,405.449
					c-1.087,0.11-2.133-0.95-2.009-2.035c0.028-0.247,0.103-0.517-0.023-0.732c-0.204-0.35-0.721-0.263-1.114-0.361
					c-1.037-0.26-1.089-1.764-1.873-2.491c-0.436-0.403-1.055-0.523-1.64-0.626c-2.695-0.474-5.39-0.949-8.084-1.423
					c-0.529-0.093-1.09-0.202-1.481-0.57c-0.332-0.313-0.492-0.773-0.812-1.098c-0.528-0.536-1.358-0.597-2.11-0.625
					c-2.595-0.097-5.19-0.195-7.785-0.292c-0.57-0.021-1.165-0.05-1.661-0.331c-0.496-0.282-0.85-0.902-0.637-1.432
					c-3.097-1.338-6.565-1.458-9.938-1.511c-4.172-0.066-8.345-0.063-12.517,0.01"/>
				<path style="fill:none;stroke:#263238;stroke-linecap:round;stroke-linejoin:round;stroke-miterlimit:10;" d="M166.014,412.225
					c3.119-1.139,6.401-1.83,9.714-2.044c0.332-0.022,0.68-0.035,0.982,0.106c0.297,0.139,0.509,0.411,0.786,0.587
					c0.435,0.277,0.982,0.291,1.497,0.297c2.855,0.033,5.71,0.067,8.565,0.1c0.059,0.259,0.117,0.519,0.175,0.778
					c3.053-0.001,6.107-0.002,9.16-0.003c0.064,0.27,0.128,0.54,0.192,0.81c2.65-0.03,5.3-0.059,7.951-0.089
					c0.222-0.003,0.462,0,0.642,0.13c0.208,0.15,0.277,0.423,0.398,0.65c0.465,0.871,1.635,0.989,2.618,1.087
					c2.519,0.252,4.977,1.092,7.123,2.433"/>
				<path style="fill:none;stroke:#263238;stroke-linecap:round;stroke-linejoin:round;stroke-miterlimit:10;" d="M177.833,406.455
					c1.72-0.433,3.44-0.866,5.16-1.298c0.211-0.053,0.442-0.104,0.639-0.011c0.248,0.118,0.344,0.419,0.537,0.615
					c0.285,0.288,0.737,0.31,1.142,0.294c1.509-0.057,3.008-0.375,4.41-0.937c0.613-0.246,1.214-0.539,1.864-0.657
					c1.133-0.205,2.283,0.142,3.398,0.428c2.115,0.541,4.286,0.869,6.467,0.948c1.42,0.052,2.846-0.001,4.259,0.146
					c1.525,0.159,3.016,0.55,4.499,0.94c1.978,0.52,3.956,1.039,5.935,1.559c3.641,0.956,7.37,1.952,10.448,4.121"/>
				<path style="fill:none;stroke:#263238;stroke-linecap:round;stroke-linejoin:round;stroke-miterlimit:10;" d="M185.43,401.927
					c1.644-0.094,3.289-0.189,4.933-0.283c1.669-1.073,3.612-1.715,5.591-1.846c1.271-0.085,2.545,0.037,3.812,0.159
					c1.626,0.156,3.252,0.312,4.878,0.468c2.568,0.247,5.155,0.493,7.724,0.25c-0.025,0.67,0.894,0.874,1.564,0.848
					c1.362-0.053,2.725-0.106,4.087-0.159c-0.038,0.578,0.241,1.162,0.702,1.511c0.329,0.25,0.732,0.38,1.129,0.497
					c3.064,0.903,6.293,1.245,9.478,1.005c0.424-0.032,0.873-0.069,1.252,0.123c0.293,0.149,0.504,0.416,0.765,0.615
					c0.494,0.377,1.133,0.49,1.738,0.632c2.052,0.48,3.995,1.421,5.644,2.734c-0.067-0.439-0.134-0.878-0.202-1.317"/>
				<path style="fill:none;stroke:#263238;stroke-linecap:round;stroke-linejoin:round;stroke-miterlimit:10;" d="M248.133,404.563
					c-1.528,0.893-3.168-0.854-4.733-1.681c-1.519-0.803-3.327-0.723-5.039-0.871c-3.914-0.338-7.596-1.946-11.43-2.803
					c-2.961-0.662-6.002-0.874-9.03-1.083c-3.174-0.22-6.348-0.439-9.522-0.659"/>
			</g>
		</g>
		<g>
			<g>
				<defs>
					<path id="XMLID_751_" d="M162.911,355.15c-5.091,17.677-28.719,25.897-28.719,25.897s-31.924,12.13-34.018-17.732
						c0,0,1.587-14.588,11.118-20.019c0,0,6.914-13.741,17.359-19.618"/>
				</defs>
				<use xlink:href="#XMLID_751_"  style="overflow:visible;fill:#92E3A9;"/>
				<clipPath id="XMLID_00000121258473017450602520000013154163168562566840_">
					<use xlink:href="#XMLID_751_"  style="overflow:visible;"/>
				</clipPath>
				<path style="opacity:0.3;clip-path:url(#XMLID_00000121258473017450602520000013154163168562566840_);fill-opacity:0.7;" d="
					M156.37,366.54c-8.79,9.85-22.18,14.51-22.18,14.51s-31.44,11.95-33.96-17.06c1.92-3.61,3.18-5.97,3.18-5.97
					s1.89-12.41,12.02-12.81c10.13-0.41,18.57,2.9,20.42,15.4c1.5,10.15-1.54,13.57-2.72,14.5c2.01-1.4,9.88-8.1,4.56-24.27
					c0,0,4.52-1.67,7.01,2.74c2.45,4.33-1.09,20.01-1.21,20.55C143.83,373.97,150.48,370.71,156.37,366.54z"/>
				
					<use xlink:href="#XMLID_751_"  style="overflow:visible;fill:none;stroke:#263238;stroke-linecap:round;stroke-linejoin:round;stroke-miterlimit:10;"/>
			</g>
			<path style="fill:none;stroke:#263238;stroke-linecap:round;stroke-linejoin:round;stroke-miterlimit:10;" d="M146.958,329.041
				c0,0,18.279,6.269,12.898,27.198"/>
			<g>
				<path style="fill:#FFFFFF;stroke:#263238;stroke-linecap:round;stroke-linejoin:round;stroke-miterlimit:10;" d="
					M134.147,364.941c-0.766,9.074-8.363,11.146-8.363,11.146l-4.64,3.137l-11.494,6.317l1.642,3.881
					c8.658,0,9.554,2.538,8.658,5.225c-0.896,2.687-12.838,4.031-14.928,4.478c-2.09,0.448-11.942-2.836-14.629-3.881
					c-2.687-1.045-3.526-6.382-3.526-6.382l-1.848-21.832c0,0,1.001-4.353,5.277-7.103c0,0,2.336-4.541,4.874-5.586
					c2.538-1.045,10.217,0.809,10.217,0.809s6.611-10.156,16.518-8.238C131.591,348.788,134.606,359.512,134.147,364.941z"/>
				<path style="fill:none;stroke:#263238;stroke-linecap:round;stroke-linejoin:round;stroke-miterlimit:10;" d="M105.386,355.15
					c0,0,5.01,1.132,7.697,2.177"/>
			</g>
			<g>
				<polygon style="fill:#92E3A9;stroke:#263238;stroke-linecap:round;stroke-linejoin:round;stroke-miterlimit:10;" points="
					116.844,393.116 122.288,398.718 120.362,391.148 81.265,321.259 77.748,323.226 				"/>
				<path style="fill:#92E3A9;stroke:#263238;stroke-linecap:round;stroke-linejoin:round;stroke-miterlimit:10;" d="
					M80.203,329.145l-5.086-9.092c0,0,0.283-1.023,2.042-2.007c1.759-0.984,2.813-0.709,2.813-0.709l9.81,17.536
					c0,0-1.249-0.166-2.813,0.709c-1.433,0.802-1.738,1.837-1.738,1.837l7.507,13.419l-1.302-0.136l-11.365-20.316L80.203,329.145z"
					/>
			</g>
			<g>
				<path style="fill:#FFFFFF;" d="M94.722,366.284c0,0,6.867,4.03,8.957,7.165c0,0,10.152,5.774,10.152,10.151
					c0,3.806-2.539,3.977-2.539,3.977s3.434,2.071,4.031,4.72c0.597,2.648-1.493,4.912-2.09,4.676
					c-0.597-0.236-20.75-5.461-25.527-7.7c-4.777-2.239-8.061-5.076-3.732-18.063c0,0,0.299-2.538,1.045-4.18
					c0.746-1.642,4.628-5.573,4.628-5.573"/>
				<path style="fill:none;stroke:#263238;stroke-linecap:round;stroke-linejoin:round;stroke-miterlimit:10;" d="M94.722,366.284
					c0,0,6.867,4.03,8.957,7.165c0,0,10.152,5.774,10.152,10.151c0,3.806-2.539,3.977-2.539,3.977s3.434,2.071,4.031,4.72
					c0.597,2.648-1.493,4.912-2.09,4.676c-0.597-0.236-20.75-5.461-25.527-7.7c-4.777-2.239-8.061-5.076-3.732-18.063
					c0,0,0.299-2.538,1.045-4.18c0.746-1.642,4.628-5.573,4.628-5.573"/>
				<path style="fill:none;stroke:#263238;stroke-linecap:round;stroke-linejoin:round;stroke-miterlimit:10;" d="M86.063,374.518
					c0.746,2.365,9.433,4.455,12.628,6.844c3.195,2.389,12.6,6.216,12.6,6.216"/>
			</g>
			<g>
				<path style="fill:#FFFFFF;" d="M122.935,361.457c0,0,4.18,1.592,5.772,4.777c1.592,3.185,1.791,8.957,0,10.549
					c-1.791,1.592-9.952,9.156-11.146,10.549c-1.194,1.393-7.763-3.185,0-12.938c0,0-0.199-5.374,1.194-7.165"/>
				<path style="fill:none;stroke:#263238;stroke-linecap:round;stroke-linejoin:round;stroke-miterlimit:10;" d="M122.935,361.457
					c0,0,4.18,1.592,5.772,4.777c1.592,3.185,1.791,8.957,0,10.549c-1.791,1.592-9.952,9.156-11.146,10.549
					c-1.194,1.393-7.763-3.185,0-12.938c0,0-0.199-5.374,1.194-7.165"/>
			</g>
			<path style="fill:none;stroke:#263238;stroke-linecap:round;stroke-linejoin:round;stroke-miterlimit:10;" d="M129.978,344.223
				c0,0,8.506,1.969,9.825,13.802c1.319,11.833-2.381,19.064-11.152,23.023"/>
			<g style="opacity:0.4;">
				<path style="fill:none;stroke:#263238;stroke-linecap:round;stroke-linejoin:round;stroke-miterlimit:10;" d="M132.513,332.847
					c2.164-2.491,4.993-5.128,8.421-5.519"/>
				<path style="fill:none;stroke:#263238;stroke-linecap:round;stroke-linejoin:round;stroke-miterlimit:10;" d="M126.681,341.516
					c0.885-1.709,1.892-3.358,2.977-4.947"/>
				<path style="fill:none;stroke:#263238;stroke-linecap:round;stroke-linejoin:round;stroke-miterlimit:10;" d="M140.933,351.962
					c0,0,12.847-1.754,17.594-7.16"/>
				<path style="fill:none;stroke:#263238;stroke-linecap:round;stroke-linejoin:round;stroke-miterlimit:10;" d="M151.389,367.309
					c2.325-1.133,4.532-2.63,6.15-4.674"/>
				<path style="fill:none;stroke:#263238;stroke-linecap:round;stroke-linejoin:round;stroke-miterlimit:10;" d="M140.933,370.404
					c2.112-0.282,4.204-0.78,6.234-1.425"/>
			</g>
		</g>
		<g>
			<g>
				<defs>
					<path id="XMLID_749_" d="M334.887,300.693c21.044,1.194,63.133,43.908,72.637,54.457c9.504,10.549,25.035,26.323,30.039,38.803
						c7.637,19.046-11.54,36.563-30.548,35.558c-19.008-1.005-58.551-41.934-58.551-41.934s-30.172-28.112-21.875-53.507"/>
				</defs>
				<use xlink:href="#XMLID_749_"  style="overflow:visible;fill:#92E3A9;"/>
				<clipPath id="XMLID_00000127754237416684437240000003045310934218571694_">
					<use xlink:href="#XMLID_749_"  style="overflow:visible;"/>
				</clipPath>
				<path style="opacity:0.3;clip-path:url(#XMLID_00000127754237416684437240000003045310934218571694_);fill-opacity:0.7;" d="
					M389.57,371.22c0,0-31.44,10.76-45.49,11.79c-1.53-1.7-3.33-3.82-5.2-6.28c-2.39-5.77-6.59-17.68-1.01-18.71
					c7.38-1.35,5.84,11.49,10.02,17.64c0,0,7.12-16.96,16.62-16.92c9.49,0.04,5.53,11.66,5.53,11.66S386.41,365.46,389.57,371.22z"
					/>
				<path style="opacity:0.3;clip-path:url(#XMLID_00000127754237416684437240000003045310934218571694_);fill-opacity:0.7;" d="
					M407.01,429.51c-3.3-0.17-7.22-1.55-11.44-3.71c15.47-2.1,30.26-5.67,34.61-13.28c4.42-7.73,1.97-22.98-2.2-34.05
					c4.13,5.33,7.64,10.65,9.58,15.48C445.2,413,426.02,430.52,407.01,429.51z"/>
				
					<use xlink:href="#XMLID_749_"  style="overflow:visible;fill:none;stroke:#263238;stroke-linecap:round;stroke-linejoin:round;stroke-miterlimit:10;"/>
			</g>
			<path style="fill:none;stroke:#263238;stroke-linecap:round;stroke-linejoin:round;stroke-miterlimit:10;" d="M312.485,364.954
				c0,0,9.733,14.594,32.021,18.531"/>
			<g>
				<path style="fill:#FFFFFF;stroke:#263238;stroke-linecap:round;stroke-linejoin:round;stroke-miterlimit:10;" d="M314.805,393.1
					l-17.309,0.23c0,0-23.523-7.581-26.604-9.576c-3.082-1.996-23.033,7.943-25.452,8.994c-2.419,1.05-4.432,2.85-4.432,2.85
					s-2.052,1.969-3.824,2.757c-1.772,0.788-4.649,5.466-4.649,5.466s-7.603,1.799-4.774,3.99c2.83,2.191,12.148,0.92,15.697-0.208
					c3.549-1.128,10.182-0.135,10.182-0.135s9.835,14.572,35.748,9.137l25.761,2.332"/>
				<path style="fill:none;stroke:#263238;stroke-linecap:round;stroke-linejoin:round;stroke-miterlimit:10;" d="M232.534,403.82
					c0,0,6.568-2.505,9.746-3.904c3.178-1.399,12.161-2.367,12.161-2.367s-1.038-4.399,3.165-5.982
					c4.203-1.583,4.841-4.647,4.841-4.647"/>
				<path style="fill:none;stroke:#263238;stroke-linecap:round;stroke-linejoin:round;stroke-miterlimit:10;" d="M241.007,395.597
					c0,0,8.448-2.903,10.484-2.93"/>
			</g>
			<path style="opacity:0.3;fill-opacity:0.7;" d="M338.65,382.6c-0.01,0-0.02-0.01-0.03-0.01c0.73,0.04,1.41,0.16,2.02,0.36
				c0.14,0.05,0.28,0.09,0.43,0.12C340.07,383.01,339.26,382.86,338.65,382.6z"/>
			<path style="opacity:0.3;fill-opacity:0.7;" d="M389.57,371.22c0,0-22.39,7.66-37.82,10.68c10.13-2.6,24.51-8.11,37.82-10.69
				V371.22z"/>
			<g>
				<defs>
					<path id="XMLID_750_" d="M394.446,370.404c-20.839,2.822-46.135,15.104-53.807,12.542c-7.672-2.562-25.853,8.697-25.853,8.697
						l-10.691,0.142c0,0-7.914,17.533-3.163,30.234l11.104,1.091c0,0-0.813,7.027,28.235,8.896
						c29.048,1.87,82.937,4.083,93.436-14.832"/>
				</defs>
				<use xlink:href="#XMLID_750_"  style="overflow:visible;fill:#92E3A9;"/>
				<clipPath id="XMLID_00000031206224829618590700000017030542190523752344_">
					<use xlink:href="#XMLID_750_"  style="overflow:visible;"/>
				</clipPath>
				<path style="opacity:0.3;clip-path:url(#XMLID_00000031206224829618590700000017030542190523752344_);fill-opacity:0.7;" d="
					M433.71,417.17c-10.5,18.92-64.39,16.71-93.44,14.84c-29.05-1.87-28.23-8.9-28.23-8.9l-8.27-0.81
					c-0.23-6.58,0.5-18.93,8.71-23.13c0,0-1.38,18.48,0,21.09c1.39,2.61,39.38,9.99,59.94,8.01c20.41-1.95,50.69-4.18,57.6-15.49
					L433.71,417.17z"/>
				
					<use xlink:href="#XMLID_750_"  style="overflow:visible;fill:none;stroke:#263238;stroke-linecap:round;stroke-linejoin:round;stroke-miterlimit:10;"/>
			</g>
			<path style="fill:none;stroke:#263238;stroke-linecap:round;stroke-linejoin:round;stroke-miterlimit:10;" d="M353.858,381.461
				c0.575-0.299,5.879-13.475,11.438-14.651"/>
			<path style="fill:none;stroke:#263238;stroke-linecap:round;stroke-linejoin:round;stroke-miterlimit:10;" d="M312.035,423.11
				c-0.013-1.297-3.623-18.216,0.445-23.94"/>
			<path style="fill:none;stroke:#263238;stroke-linecap:round;stroke-linejoin:round;stroke-miterlimit:10;" d="M333.121,327.328
				c0,0,5.082-13.979,18.629-15.395"/>
			<g style="opacity:0.4;">
				<path style="fill:none;stroke:#263238;stroke-linecap:round;stroke-linejoin:round;stroke-miterlimit:10;" d="M357.547,347.318
					C358,349,357,351,360,352c7,1,10,6,14,11c2,1,4,2,5.538,3.811"/>
				<path style="fill:none;stroke:#263238;stroke-linecap:round;stroke-linejoin:round;stroke-miterlimit:10;" d="M341.07,325.549
					c5.623,5.16,10.525,11.347,14.387,17.914"/>
				<path style="fill:none;stroke:#263238;stroke-linecap:round;stroke-linejoin:round;stroke-miterlimit:10;" d="M328.71,396.746
					c-2.327,0.756-4.642,1.552-6.93,2.421"/>
				<path style="fill:none;stroke:#263238;stroke-linecap:round;stroke-linejoin:round;stroke-miterlimit:10;" d="M404.094,379.391
					C383,390,360,389,337,394c-1,0-3,1-4.354,1.521"/>
				<path style="fill:none;stroke:#263238;stroke-linecap:round;stroke-linejoin:round;stroke-miterlimit:10;" d="M353.858,315.791
					C363,320,370,328,377,335c7,9,13,19,24,24c3,2,6,5,6,10c1,2,5,4,1.204,7.986"/>
				<path style="fill:none;stroke:#263238;stroke-linecap:round;stroke-linejoin:round;stroke-miterlimit:10;" d="M380.883,405.932
					C361,409,341,415,320.542,412.2"/>
				<path style="fill:none;stroke:#263238;stroke-linecap:round;stroke-linejoin:round;stroke-miterlimit:10;" d="M426.22,381.9
					c3.116,15.09-16.603,18.028-27.086,20.331c-4.884,1.073-9.784,2.072-14.693,3.022"/>
				<path style="fill:none;stroke:#263238;stroke-linecap:round;stroke-linejoin:round;stroke-miterlimit:10;" d="M330.471,426.175
					c-3.804-0.625-7.631-1.497-11.167-3.065"/>
				<path style="fill:none;stroke:#263238;stroke-linecap:round;stroke-linejoin:round;stroke-miterlimit:10;" d="M436.242,402.59
					C436,412,427,417,420,419c-28,10-57,9-85.761,7.709"/>
				<path style="fill:none;stroke:#263238;stroke-linecap:round;stroke-linejoin:round;stroke-miterlimit:10;" d="M339.022,355.114
					c3.609,3.769,8.312,5.657,10.049,10.94c1.062,3.228,2.073,7.18,5.94,8.082"/>
				<path style="fill:none;stroke:#263238;stroke-linecap:round;stroke-linejoin:round;stroke-miterlimit:10;" d="M330.22,340.319
					c1.505,4.115,3.594,8.107,6.178,11.644"/>
			</g>
		</g>
		<path style="fill:none;stroke:#263238;stroke-linecap:round;stroke-linejoin:round;stroke-miterlimit:10;" d="M411.597,364.954"/>
		<g>
			<path style="fill:#FFFFFF;stroke:#263238;stroke-linecap:round;stroke-linejoin:round;stroke-miterlimit:10;" d="M249.26,321.26
				c-0.12-0.16-0.26-0.32-0.4-0.48c-4.19-4.91-14.36-8.46-17.45-9.45c-0.57-0.18-0.9-0.28-0.9-0.28s7.07-52.61,40.68-35.65
				C304.79,292.35,253.88,327.34,249.26,321.26z"/>
			<path style="fill:#263238;" d="M248.86,320.78c-4.19-4.91-14.36-8.46-17.45-9.45c0.59-1.59,1.12-2.66,1.12-2.66l29.92-18.03
				C262.45,290.64,263.27,311.48,248.86,320.78z"/>
		</g>
		<g>
			<path style="fill:#FFFFFF;stroke:#263238;stroke-linecap:round;stroke-linejoin:round;stroke-miterlimit:10;" d="
				M274.489,258.039c-0.795-45.222-31.483-77.5-71.803-54.264c-32.946,18.987-29.411,55.116-11.26,73.655
				c10.742,10.971,2.151,21.402,18.972,35.606c5.717,4.827,20.231,10.196,25.28,8.561c17.778-5.757,32.354-25.433,29.742-33.497"/>
			<path style="fill:none;stroke:#263238;stroke-linecap:round;stroke-linejoin:round;stroke-miterlimit:10;" d="M207.632,264.708
				c0,0,6.747-8.654,20.006-6.479"/>
			<path style="fill:none;stroke:#263238;stroke-linecap:round;stroke-linejoin:round;stroke-miterlimit:10;" d="M193.413,269.313
				c0,0-6.764-2.378-7.385,0.27"/>
			<path style="fill:#263238;" d="M223.891,269.615c0.912,1.264,1.037,2.732,0.278,3.28c-0.758,0.547-2.113-0.034-3.025-1.298
				c-0.912-1.264-1.037-2.732-0.278-3.28C221.625,267.771,222.979,268.352,223.891,269.615z"/>
			<path style="fill:#263238;" d="M199.669,277.46c0.912,1.264,1.037,2.732,0.278,3.279c-0.758,0.547-2.113-0.034-3.025-1.298
				c-0.912-1.264-1.037-2.732-0.278-3.28C197.402,275.615,198.757,276.196,199.669,277.46z"/>
			<path style="fill:#FFFFFF;stroke:#263238;stroke-linecap:round;stroke-linejoin:round;stroke-miterlimit:10;" d="
				M200.311,275.396c3.174,2.669,7.079,6.641,3.539,14.257c-3.541,7.616,5.188,8.485,9.93,5.255"/>
			<path style="fill:#FFFFFF;stroke:#263238;stroke-linecap:round;stroke-linejoin:round;stroke-miterlimit:10;" d="
				M216.977,293.565c0,0,3.083-2.847-1.896-5.855"/>
			<path style="fill:#FFFFFF;stroke:#263238;stroke-linecap:round;stroke-linejoin:round;stroke-miterlimit:10;" d="
				M214.461,303.184c0.906,1.507,5.553-0.431,6.91-0.734c0,0,2.311-1.56,3.642-2.189s5.315-2.681,5.494-5.012"/>
			<path style="fill:#FFFFFF;stroke:#263238;stroke-linecap:round;stroke-linejoin:round;stroke-miterlimit:10;" d="
				M217.635,305.918c4.18,4.073,11.436-0.382,12.873-6.434"/>
			<path style="fill:#263238;" d="M219.625,191.453c-28.983,5.378-44.785,24.856-45.114,42.329c0,0-10.989,20.591-2.476,35.535
				c0,0,0.421-0.518,1.115-1.22c-0.372-2.495-0.608-5.011-0.613-7.532c0.014-2.531,0.224-5.061,0.744-7.53
				c0.573-2.459,1.472-4.831,2.759-6.973c-1.112,2.243-1.799,4.64-2.166,7.079c-0.313,2.451-0.317,4.922-0.133,7.373
				c0.172,2.077,0.512,4.135,0.948,6.169c1.595-1.32,3.688-2.6,5.651-2.394c0.894,0.094,1.795,0.106,2.699,0.048
				c-0.411-2.05-0.753-4.111-0.985-6.182c-0.243-2.401-0.345-4.811-0.274-7.211c0.121-2.401,0.442-4.785,1.048-7.081
				c-0.311,2.36-0.323,4.722-0.145,7.061c0.229,2.34,0.625,4.65,1.152,6.928c0.501,2.06,1.109,4.088,1.791,6.088
				c2.165-0.516,4.314-1.505,6.376-3.093c0.605-0.466,1.167-0.777,1.702-0.991c-0.155-1.003-0.296-2.008-0.401-3.019
				c-0.285-2.836-0.477-5.68-0.292-8.521c0.181-2.832,0.636-5.653,1.606-8.27c-0.484,2.753-0.415,5.515-0.1,8.222
				c0.313,2.712,0.989,5.369,1.74,7.977c0.336,1.152,0.717,2.291,1.123,3.421c1.184,0.23,2.344,0.542,3.674,0.254
				c2.186-0.474,4.415-0.311,6.496-1.162c-0.25-0.711-0.515-1.418-0.742-2.137c-0.772-2.491-1.353-5.038-1.753-7.605
				c-0.363-2.576-0.455-5.18-0.275-7.754c0.02,2.584,0.314,5.142,0.867,7.645c0.591,2.494,1.353,4.938,2.297,7.312
				c0.258,0.639,0.55,1.262,0.827,1.893c0.46-0.302,0.912-0.667,1.351-1.13c2.738-2.89,6.774-4.865,9.175-3.639
				c0.45,0.23,0.986,0.465,1.565,0.672c-0.085-0.282-0.184-0.561-0.266-0.844c-0.754-2.654-1.374-5.342-1.838-8.051
				c-0.417-2.72-0.65-5.462-0.6-8.19c0.252,2.72,0.782,5.385,1.483,7.997c0.75,2.602,1.644,5.152,2.662,7.65
				c0.283,0.678,0.592,1.343,0.891,2.014c1.91,0.243,3.74-0.184,4.305-2.266c0.168-0.62,0.46-1.029,0.82-1.302
				c-0.147-0.379-0.294-0.758-0.436-1.142c-0.725-1.965-1.334-3.965-1.84-5.984c-0.516-2.015-0.91-4.057-1.173-6.107
				c-0.3-2.045-0.379-4.112-0.412-6.156c0.333,2.024,0.709,4.026,1.296,5.973c0.551,1.953,1.222,3.864,2.004,5.723
				c0.772,1.862,1.634,3.68,2.596,5.437c0.402,0.737,0.828,1.475,1.266,2.199c1.056,0.378,1.895,0.901,1.895,0.901
				s-5.152-12.815-4.142-25.165c0,0,6.205,26.378,25.012,35.984l3.942,7.015c0,0,6.708-5.503,11.991-0.534
				c5.283,4.969,7.163,1.595,7.163,1.595s8.324-16.247-1.661-47.079C265.833,192.854,242.761,187.16,219.625,191.453z"/>
			<path style="fill:#FFFFFF;stroke:#263238;stroke-linecap:round;stroke-linejoin:round;stroke-miterlimit:10;" d="
				M266.816,278.143c0,0-0.378,2.639,2.771,2.851c3.149,0.212,5.821-6.34,7.397-18.286c1.673-12.684-2.211-20.307-9.752-20.378
				c-7.54-0.071-9.603,7.928-10.234,12.551c-0.887,6.502,0.478,11.782,0.478,11.782"/>
			<path style="fill:#92E3A9;stroke:#263238;stroke-linecap:round;stroke-linejoin:round;stroke-miterlimit:10;" d="
				M272.121,276.473c0,0.961-0.779,1.74-1.74,1.74c-0.961,0-1.74-0.779-1.74-1.74c0-0.961,0.779-1.74,1.74-1.74
				C271.342,274.733,272.121,275.512,272.121,276.473z"/>
			<path style="fill:#FFFFFF;stroke:#263238;stroke-linecap:round;stroke-linejoin:round;stroke-miterlimit:10;" d="
				M226.652,296.995c0,0-4.582,1.158-5.728,1.54c-1.146,0.382-2.418,2.158-2.418,2.158s-2.805,0.067-3.425,1.279"/>
		</g>
		<g style="opacity:0.2;">
			<path style="fill:none;stroke:#FFFFFF;stroke-linecap:round;stroke-linejoin:round;stroke-miterlimit:10;" d="M215.081,217.945
				c0,0-5.619,11.67-3.196,28.484"/>
			<path style="fill:none;stroke:#FFFFFF;stroke-linecap:round;stroke-linejoin:round;stroke-miterlimit:10;" d="M204.495,217.945
				c0,0-11.748,15.159-5.023,36.755"/>
			<path style="fill:none;stroke:#FFFFFF;stroke-linecap:round;stroke-linejoin:round;stroke-miterlimit:10;" d="M186.027,257.878
				c0.193-0.966-5.742-23.713,4.742-35.581"/>
			<path style="fill:none;stroke:#FFFFFF;stroke-linecap:round;stroke-linejoin:round;stroke-miterlimit:10;" d="M170.791,254.7
				c0,0,2.943-22.102,13.736-30.022"/>
			<path style="fill:none;stroke:#FFFFFF;stroke-linecap:round;stroke-linejoin:round;stroke-miterlimit:10;" d="M231.41,217.945
				c0,0,12.788,21.56,29.59,20.374"/>
			<path style="fill:none;stroke:#FFFFFF;stroke-linecap:round;stroke-linejoin:round;stroke-miterlimit:10;" d="M237.471,211.278
				c0,0,16.025,14.381,29.563,11.019"/>
		</g>
	</g>
</g>
</svg>
